<mxfile host="app.diagrams.net" modified="2021-12-11T15:31:48.207Z" agent="5.0 (Macintosh; Intel Mac OS X 10_15_7) AppleWebKit/605.1.15 (KHTML, like Gecko) Version/15.1 Safari/605.1.15" etag="CHRaMucjCBRbWQGfVQL2" version="15.9.4" type="github">
  <diagram id="yJCPenbUko813pjVzgLq" name="Page-1">
    <mxGraphModel dx="786" dy="573" grid="1" gridSize="10" guides="1" tooltips="1" connect="1" arrows="1" fold="1" page="1" pageScale="1" pageWidth="827" pageHeight="1169" math="0" shadow="0">
      <root>
        <mxCell id="0" />
        <mxCell id="1" parent="0" />
        <mxCell id="_H93wEOQ6aqMlFlWUTr2-2" value="hello, diagram.drawio" style="rounded=0;whiteSpace=wrap;html=1;" vertex="1" parent="1">
          <mxGeometry x="340" y="180" width="120" height="60" as="geometry" />
        </mxCell>
      </root>
    </mxGraphModel>
  </diagram>
</mxfile>
